<svg xmlns="http://www.w3.org/2000/svg" width="36" height="40">
    <path fill="#FEFEFE" fill-rule="evenodd" d="M34.966 17.268c-1.678 8.791-5.61 13.006-2.999 18.228.638.915.88 1.761.534 2.47-.389.797-1.369 1.123-2.705 1.123-3.926 0-10.923-2.818-14.989-4.787a.722.722 0 0 1-.336-.968.727.727 0 0 1 .971-.335c9.35 4.527 15.309 5.237 15.751 4.334.441-.905-3.8-5.135-13.149-9.663-3.117-1.509-6.203-2.746-8.923-3.576a.724.724 0 1 1 .426-1.386c2.791.853 5.949 2.118 9.132 3.659 3.229 1.565 8.022 4.246 11.073 6.824-.472-2.741.47-5.287 1.572-8.456.765-2.2 1.632-4.693 2.214-7.738 1.656-8.686-3.648-11.083-3.875-11.181l-.059-.026-.069-.035c-.01-.006-1.65-.856-3.963-.856-3.072 0-5.872 1.443-8.324 4.289-1.918 2.228-3.341 4.35-4.597 6.221-2.253 3.359-4.126 6.145-7.425 7.246a.721.721 0 0 1-.723.417c-1.631-.159-2.148.137-2.21.265-.094.193.164 1.182 2.503 3.136a.723.723 0 0 1-.468 1.28.727.727 0 0 1-.467-.17c-2.513-2.1-3.454-3.696-2.876-4.88.353-.722 1.179-1.089 2.491-1.118 5.538-.889 6.828-6.556 12.669-13.34 3.294-3.825 6.758-4.794 9.427-4.794.585 0 1.129.048 1.627.121.075-1.045.615-2.025 1.463-2.591.597-.398 1.864-.931 3.641-.028.903.459 1.533 1.388 1.644 2.425.116 1.081-.34 2.151-1.244 2.979 1.659 1.822 3.358 5.172 2.263 10.911zM31.643 2.244c-.839-.426-1.59-.447-2.172-.06-.533.356-.842 1.015-.819 1.699.99.282 1.577.599 1.577.599s.611.252 1.408.881c.623-.532.934-1.178.864-1.831-.059-.556-.388-1.049-.858-1.288zM8.578 27.715a4.27 4.27 0 0 1 2.002.497l1.089-1.393a.73.73 0 0 1 1.02-.126.722.722 0 0 1 .127 1.016l-1.087 1.392c.7.759 1.132 1.77 1.132 2.88 0 2.352-1.921 4.266-4.283 4.266-2.361 0-4.281-1.914-4.281-4.266 0-2.352 1.92-4.266 4.281-4.266zm0 7.084a2.827 2.827 0 0 0 2.829-2.818 2.827 2.827 0 0 0-2.829-2.818 2.826 2.826 0 0 0-2.827 2.818 2.825 2.825 0 0 0 2.827 2.818z"/>
</svg>
