<svg xmlns="http://www.w3.org/2000/svg" width="30" height="34">
    <path fill="#FEFEFE" fill-rule="evenodd" d="M28.105 33.352h-2.456a1.845 1.845 0 0 1-1.842-1.841c.005.038-.223-.615-2.456-.615H9.07c-2.234 0-2.458.664-2.46.672.004.957-.822 1.784-1.838 1.784H2.316a1.845 1.845 0 0 1-1.842-1.843V3.266a3.073 3.073 0 0 1 3.07-3.07h23.333a3.073 3.073 0 0 1 3.07 3.07v28.243a1.845 1.845 0 0 1-1.842 1.843zm.614-30.086a1.845 1.845 0 0 0-1.842-1.843H3.544a1.845 1.845 0 0 0-1.842 1.843v9.824h27.017V3.266zm0 11.051H1.702v11.666h27.017V14.317zm0 15.351V27.212H1.702V31.509c0 .339.275.614.614.614h2.456a.615.615 0 0 0 .614-.614c0-.188.103-1.841 3.684-1.841h12.281c3.581 0 3.684 1.653 3.684 1.841 0 .339.276.614.614.614h2.456a.614.614 0 0 0 .614-.614v-1.841zM10.912 18.615c.339 0 .614.275.614.615v.921c0 .105.24.307.614.307h6.141c.374 0 .614-.202.614-.307v-.921a.614.614 0 1 1 1.228 0v.921c0 .846-.826 1.535-1.842 1.535H12.14c-1.015 0-1.842-.689-1.842-1.535v-.921c0-.34.275-.615.614-.615zm0-12.893c.339 0 .614.274.614.614v.921c0 .105.24.306.614.306h6.141c.374 0 .614-.201.614-.306v-.921a.613.613 0 1 1 1.228 0v.921c0 .846-.826 1.534-1.842 1.534H12.14c-1.015 0-1.842-.688-1.842-1.534v-.921c0-.34.275-.614.614-.614z"/>
</svg>
