<svg xmlns="http://www.w3.org/2000/svg" width="36" height="28">
    <path fill="#FEFEFE" fill-rule="evenodd" d="M32.19 27.497H3.676c-1.787 0-3.241-1.466-3.241-3.267V3.317C.435 1.516 1.889.049 3.676.049H32.19c1.787 0 3.241 1.467 3.241 3.268V24.23c0 1.801-1.454 3.267-3.241 3.267zm1.945-24.18a1.956 1.956 0 0 0-1.945-1.961H3.676c-1.072 0-1.945.88-1.945 1.961V24.23c0 1.081.873 1.961 1.945 1.961H32.19c1.072 0 1.945-.88 1.945-1.961V3.317zM20.318 14.52c-.657.572-1.521.859-2.385.859-.864 0-1.728-.286-2.385-.859L3.252 3.812a.658.658 0 0 1-.067-.922.644.644 0 0 1 .914-.067l12.296 10.708c.834.726 2.242.726 3.076 0L31.767 2.823a.645.645 0 0 1 .914.067.658.658 0 0 1-.067.922L20.318 14.52z"/>
</svg>
