<svg xmlns="http://www.w3.org/2000/svg" width="188" height="195">
    <path fill="#040405" fill-rule="evenodd" d="M184.243 117.404a3.6 3.6 0 0 1-3.599-3.602c0-.961-.046-1.896-.074-2.84-1.466-2.993-8.084-14.341-24.014-14.341-17.964 0-24.097 14.453-24.35 15.068a3.615 3.615 0 0 1-3.062 2.233 3.616 3.616 0 0 1-3.36-1.731c-.38-.625-9.76-15.57-31.521-15.57-21.932 0-31.426 15.414-31.521 15.57-.703 1.173-1.965 1.871-3.374 1.736a3.597 3.597 0 0 1-3.054-2.252c-.247-.601-6.38-15.054-24.344-15.054-15.908 0-22.53 11.321-24.014 14.339-.028.946-.073 1.881-.073 2.842a3.6 3.6 0 1 1-7.199 0c0-1.027.042-2.038.074-3.055a3.459 3.459 0 0 1 .021-.873c1.951-48.3 39.693-84.524 89.885-86.185V3.867a3.6 3.6 0 1 1 7.198 0v19.822c50.192 1.661 87.934 37.885 89.885 86.184.039.302.057.589.021.885.032 1.012.074 2.021.074 3.044a3.6 3.6 0 0 1-3.599 3.602zm-89.98-86.592c-37.482 0-77.042 23.32-84.939 66.863 4.885-4.333 12.168-8.258 22.646-8.258 15.574 0 24.157 8.661 28.164 14.47 5.156-5.649 16.098-14.47 34.129-14.47s28.973 8.821 34.129 14.47c4.007-5.809 12.59-14.47 28.164-14.47 10.478 0 17.761 3.925 22.647 8.258-7.898-43.543-47.457-66.863-84.94-66.863zm-43.19 127.946a3.6 3.6 0 0 1 3.599 3.602v7.205c0 11.824 9.054 18.01 17.996 18.01 8.942 0 17.996-6.186 17.996-18.01v-61.236a3.6 3.6 0 0 1 3.599-3.603 3.6 3.6 0 0 1 3.599 3.603v61.236c0 16.378-12.98 25.215-25.194 25.215-12.214 0-25.194-8.837-25.194-25.215v-7.205a3.6 3.6 0 0 1 3.599-3.602z" opacity=".2"/>
</svg>
